<?xml version="1.0" encoding="UTF-8" standalone="no"?>
<svg
   version="1.1"
   width="128"
   height="128"
   viewBox="0 0 128 128"
   id="svg3049"
   xmlns:xlink="http://www.w3.org/1999/xlink"
   xmlns="http://www.w3.org/2000/svg"
   xmlns:svg="http://www.w3.org/2000/svg"
   xmlns:rdf="http://www.w3.org/1999/02/22-rdf-syntax-ns#"
   xmlns:cc="http://creativecommons.org/ns#"
   xmlns:dc="http://purl.org/dc/elements/1.1/">
  <defs
     id="defs3051">
    <linearGradient
       id="linearGradient3688-166-749-5">
      <stop
         id="stop2883-0"
         style="stop-color:#181818;stop-opacity:1"
         offset="0" />
      <stop
         id="stop2885-5"
         style="stop-color:#181818;stop-opacity:0"
         offset="1" />
    </linearGradient>
    <linearGradient
       id="linearGradient3688-464-309-8">
      <stop
         id="stop2889-9"
         style="stop-color:#181818;stop-opacity:1"
         offset="0" />
      <stop
         id="stop2891-4"
         style="stop-color:#181818;stop-opacity:0"
         offset="1" />
    </linearGradient>
    <linearGradient
       id="linearGradient3702-501-757-0">
      <stop
         id="stop2895-0"
         style="stop-color:#181818;stop-opacity:0"
         offset="0" />
      <stop
         id="stop2897-2"
         style="stop-color:#181818;stop-opacity:1"
         offset="0.5" />
      <stop
         id="stop2899-6"
         style="stop-color:#181818;stop-opacity:0"
         offset="1" />
    </linearGradient>
    <linearGradient
       id="linearGradient3811">
      <stop
         id="stop3813"
         style="stop-color:#000000;stop-opacity:1"
         offset="0" />
      <stop
         id="stop3815"
         style="stop-color:#000000;stop-opacity:0"
         offset="1" />
    </linearGradient>
    <radialGradient
       xlink:href="#linearGradient3688-166-749-5"
       id="radialGradient3946"
       gradientUnits="userSpaceOnUse"
       gradientTransform="matrix(1.9740983,0,0,1.4,28.210531,-17.402531)"
       cx="4.9929786"
       cy="43.5"
       fx="4.9929786"
       fy="43.5"
       r="2.5" />
    <radialGradient
       xlink:href="#linearGradient3688-464-309-8"
       id="radialGradient3948"
       gradientUnits="userSpaceOnUse"
       gradientTransform="matrix(1.9740983,0,0,1.4,-19.789474,-104.39747)"
       cx="4.9929786"
       cy="43.5"
       fx="4.9929786"
       fy="43.5"
       r="2.5" />
    <linearGradient
       xlink:href="#linearGradient3702-501-757-0"
       id="linearGradient3950"
       gradientUnits="userSpaceOnUse"
       x1="25.058096"
       y1="47.027729"
       x2="25.058096"
       y2="39.999443"
       gradientTransform="matrix(1.005291,0,0,1,-0.12698188,-0.00253193)" />
    <radialGradient
       xlink:href="#linearGradient3811"
       id="radialGradient3976"
       gradientUnits="userSpaceOnUse"
       gradientTransform="matrix(1.5563924,0,0,0.16978827,70.270355,102.13157)"
       cx="-4.0287771"
       cy="93.467628"
       fx="-4.0287771"
       fy="93.467628"
       r="35.338131" />
    <linearGradient
       xlink:href="#linearGradient5171"
       id="linearGradient5177"
       x1="-19"
       y1="20"
       x2="-19"
       y2="42"
       gradientUnits="userSpaceOnUse"
       gradientTransform="translate(49.620739,10.999812)" />
    <linearGradient
       id="linearGradient5171">
      <stop
         style="stop-color:#f8f8f8;stop-opacity:1"
         offset="0"
         id="stop5173" />
      <stop
         style="stop-color:#efeff0;stop-opacity:1"
         offset="1"
         id="stop5175" />
    </linearGradient>
    <linearGradient
       xlink:href="#linearGradient3462"
       id="linearGradient4088"
       gradientUnits="userSpaceOnUse"
       gradientTransform="matrix(1.4864864,0,0,0.75675676,-3.6757363,23.337847)"
       x1="40.290417"
       y1="5.524776"
       x2="40.290417"
       y2="42.437775" />
    <linearGradient
       id="linearGradient3462">
      <stop
         id="stop3464"
         style="stop-color:#ffffff;stop-opacity:1"
         offset="0" />
      <stop
         id="stop3466"
         style="stop-color:#ffffff;stop-opacity:0.23529412"
         offset="0.03457849" />
      <stop
         id="stop3468"
         style="stop-color:#ffffff;stop-opacity:0.15686275"
         offset="0.96375686" />
      <stop
         id="stop3470"
         style="stop-color:#ffffff;stop-opacity:0.39215687"
         offset="1" />
    </linearGradient>
    <linearGradient
       xlink:href="#linearGradient5171"
       id="linearGradient5177-3"
       x1="-19"
       y1="20"
       x2="-19"
       y2="42"
       gradientUnits="userSpaceOnUse"
       gradientTransform="translate(54.620552,10.999812)" />
    <linearGradient
       y2="42"
       x2="-19"
       y1="20"
       x1="-19"
       gradientTransform="translate(59.620552,10.999812)"
       gradientUnits="userSpaceOnUse"
       id="linearGradient4172"
       xlink:href="#linearGradient5171" />
    <linearGradient
       gradientTransform="matrix(2.6665808,0,0,2.6665808,-0.33290486,-64.745899)"
       gradientUnits="userSpaceOnUse"
       xlink:href="#linearGradient3104"
       id="linearGradient3117"
       y2="3.0718794"
       x2="22.004084"
       y1="44.854229"
       x1="22.004084" />
    <linearGradient
       id="linearGradient3104">
      <stop
         offset="0"
         style="stop-color:#a0a0a0;stop-opacity:1"
         id="stop3106" />
      <stop
         offset="1"
         style="stop-color:#c8c8c8;stop-opacity:1"
         id="stop3108" />
    </linearGradient>
    <linearGradient
       gradientTransform="matrix(1.2162162,0,0,2.9027958,-27.547918,-65.834805)"
       gradientUnits="userSpaceOnUse"
       xlink:href="#linearGradient3454-2"
       id="linearGradient3113-5-0"
       y2="40.927929"
       x2="68.437271"
       y1="4.410717"
       x1="68.437271" />
    <linearGradient
       id="linearGradient3454-2">
      <stop
         offset="0"
         style="stop-color:#ffffff;stop-opacity:1"
         id="stop3456-3" />
      <stop
         offset="0.0097359"
         style="stop-color:#ffffff;stop-opacity:0.23529412"
         id="stop3458-6" />
      <stop
         offset="0.99001008"
         style="stop-color:#ffffff;stop-opacity:0.15686275"
         id="stop3460-9" />
      <stop
         offset="1"
         style="stop-color:#ffffff;stop-opacity:0.39215687"
         id="stop3462-0" />
    </linearGradient>
    <linearGradient
       gradientTransform="matrix(1.1967199,7.2236751e-4,-7.2861804e-4,1.1864539,124.60587,-82.385502)"
       gradientUnits="userSpaceOnUse"
       xlink:href="#linearGradient3600"
       id="linearGradient3139"
       y2="114.5354"
       x2="-60.908253"
       y1="13.668072"
       x1="-60.969666" />
    <linearGradient
       id="linearGradient3600">
      <stop
         offset="0"
         style="stop-color:#f4f4f4;stop-opacity:1"
         id="stop3828" />
      <stop
         offset="1"
         style="stop-color:#dbdbdb;stop-opacity:1"
         id="stop3604" />
    </linearGradient>
    <linearGradient
       gradientTransform="matrix(2.6572009,0,0,2.6584403,0.22819524,-63.674017)"
       gradientUnits="userSpaceOnUse"
       xlink:href="#linearGradient3104"
       id="linearGradient3141"
       y2="-1.0040783"
       x2="11.536495"
       y1="44.952385"
       x1="11.536495" />
  </defs>
  <metadata
     id="metadata3054">
    <rdf:RDF>
      <cc:Work
         rdf:about="">
        <dc:format>image/svg+xml</dc:format>
        <dc:type
           rdf:resource="http://purl.org/dc/dcmitype/StillImage" />
        <dc:title />
      </cc:Work>
    </rdf:RDF>
  </metadata>
  <path
     style="color:#000000;display:inline;overflow:visible;visibility:visible;opacity:0.2;fill:url(#radialGradient3976);fill-opacity:1;fill-rule:nonzero;stroke:none;stroke-width:1;marker:none;enable-background:accumulate"
     id="path3041"
     d="m 119,118.00128 a 55,6 0 0 1 -109.9999975,0 55,6 0 1 1 109.9999975,0 z" />
  <g
     style="display:inline"
     id="g2036"
     transform="matrix(2.6999989,0,0,0.55555607,-0.8000075,94.890689)">
    <g
       style="opacity:0.4"
       id="g3712"
       transform="matrix(1.052632,0,0,1.285713,-1.263158,-13.42854)">
      <rect
         style="fill:url(#radialGradient3946);fill-opacity:1;stroke:none;stroke-width:1"
         id="rect2801"
         y="39.997467"
         x="38.074078"
         height="7"
         width="4.9259257" />
      <rect
         style="fill:url(#radialGradient3948);fill-opacity:1;stroke:none;stroke-width:1"
         id="rect3696"
         transform="scale(-1)"
         y="-46.997467"
         x="-9.9259281"
         height="7"
         width="4.9259257" />
      <rect
         style="fill:url(#linearGradient3950);fill-opacity:1;stroke:none;stroke-width:1"
         id="rect3700"
         y="39.997467"
         x="9.9259281"
         height="7.0000005"
         width="28.148148" />
    </g>
  </g>
  <g
     transform="matrix(0.81821113,0,0,0.81821113,11.634488,59.998388)"
     id="layer1">
    <g
       id="g432">
      <path
         style="display:inline;fill:url(#linearGradient3139);fill-opacity:1;stroke:url(#linearGradient3141);stroke-width:0.99999988;stroke-linecap:round;stroke-linejoin:round;stroke-miterlimit:4;stroke-dasharray:none;stroke-opacity:1"
         id="path2855"
         d="M 20.157201,-54.49606 H 107.84483 L 110.5,54.5 17.5,54.4439 20.157201,-54.49601 Z" />
      <path
         style="color:#000000;display:inline;overflow:visible;visibility:visible;fill:none;stroke:url(#linearGradient3113-5-0);stroke-width:1;stroke-linecap:round;stroke-linejoin:miter;stroke-miterlimit:4;stroke-dasharray:none;stroke-dashoffset:0;stroke-opacity:1;marker:none;enable-background:accumulate"
         id="path2855-9"
         d="M 21.100057,-53.500005 H 106.90193 L 109.5,53.5 18.5,53.4449 21.100057,-53.499986 Z" />
      <path
         style="fill:none;stroke:url(#linearGradient3117);stroke-width:1px;stroke-linecap:butt;stroke-linejoin:miter;stroke-opacity:1"
         id="path3715"
         d="m 34.329803,-33.500005 h 6.261052 m 0.894438,0 h 5.813834 m 0.935853,0 h 5.187729 m 0.85302,0 h 2.236088 m 0.894438,0 h 5.008841 m 0.983881,0 h 13.148208 m 0.894441,0 h 10.017683 m 0.894437,0 h 3.041081 m -57.065024,5 h 9.70804 m 1.129462,0 h 4.638723 m 0.857511,0 h 2.289126 m 0.931362,0 h 4.272945 m 0.894438,0 h 4.382115 m 0.8272,0 h 6.880954 m 0.894441,0 h 9.077596 m -46.783913,4.97337 h 8.216874 m 0.863183,0 h 13.532463 m 0.829387,0 h 6.562951 m 0.841181,0 h 6.139562 m 0.880455,0 h 5.230021 m 0.841183,0 8.225503,0.05326 m -52.162763,4.97337 h 11.424571 m 0.897126,0 h 12.34781 m 0.853021,0 h 4.85227 m 0.894438,0 h 11.5493 m 0.777341,0 h 7.915841 m 0.89444,0 h 3.13299 m 0.894438,0 h 1.732989 m -58.166575,5 h 4.26449 m 1.310208,0 h 15.790156 m -21.364854,27 h 9.70804 m 1.129462,0 h 4.638723 m 0.857511,0 h 2.289126 m 0.931362,0 h 4.272945 m 0.894438,0 h 4.382115 m 0.8272,0 h 6.880954 M 34.329803,24.418184 h 8.216874 m 0.863183,0 h 13.532463 m 0.829387,0 h 6.562951 m 23.192051,0.163622 H 100.93134 M 34.329803,8.499995 h 11.424571 m 0.897126,0 h 12.34781 m 0.853021,0 h 4.85227 m 0.894438,0 h 11.5493 m -42.818536,-11 h 6.261052 m 0.894438,0 h 5.813834 m 0.935853,0 h 5.187729 m 0.85302,0 h 2.236088 m 0.894438,0 h 5.008841 m 0.983881,0 h 13.148208 m 0.894441,0 h 10.017683 m -53.129506,6 h 10.544418 m 0.829422,0 h 11.196842 m 0.85302,0 h 4.378342 m 0.826736,0 h 10.533738 m 0.845045,0 h 11.504155 m -51.511718,26 h 9.853568 m 1.057734,0 h 4.34417 m 1.0175,0 h 2.166749 m 0.689725,0 h 4.277289 m 0.567845,0 h 22.644829 m 1.065528,0 h 6.044827 m 0.812792,0 h 1.526282 m -44.843223,6 h 3.21427 m -14.439885,0 h 10.284685 m 4.977259,0 H 57.0703 m 0.791095,0 h 10.978052 m 0.85302,0 h 7.447382 m 0.74968,0 h 1.534646 m 0.839123,0 h 9.456876 m 0.96682,0 h 4.951147 m -50.082723,5 h 4.538384 m -15.763999,0 h 10.284685 m 6.462851,0 h 6.380506" />
    </g>
  </g>
  <g
     transform="matrix(1.7931033,0,0,1.7931033,6.6206901,16.793142)"
     id="g147">
    <g
       id="g950">
      <rect
         style="color:#000000;display:inline;overflow:visible;visibility:visible;opacity:1;fill:#4caf50;fill-opacity:1;fill-rule:nonzero;stroke:none;stroke-width:0.99999994;marker:none;enable-background:accumulate"
         id="rect5505-21-3-8-5-2"
         y="26.499983"
         x="3.4999995"
         ry="1.5517241"
         rx="1.9"
         height="30"
         width="57" />
      <rect
         style="opacity:0.6;fill:none;stroke:url(#linearGradient4088);stroke-width:1;stroke-linecap:round;stroke-linejoin:round;stroke-miterlimit:4;stroke-dasharray:none;stroke-dashoffset:0;stroke-opacity:1"
         id="rect6741-5-0-2-3"
         y="27.499975"
         x="4.4999423"
         ry="0.77777779"
         rx="0.95930237"
         height="28"
         width="55" />
      <rect
         style="color:#000000;clip-rule:nonzero;display:inline;overflow:visible;visibility:visible;opacity:0.5;isolation:auto;mix-blend-mode:normal;color-interpolation:sRGB;color-interpolation-filters:linearRGB;solid-color:#000000;solid-opacity:1;fill:none;fill-opacity:1;fill-rule:nonzero;stroke:#2e7d32;stroke-width:1;stroke-linecap:butt;stroke-linejoin:miter;stroke-miterlimit:4;stroke-dasharray:none;stroke-dashoffset:0;stroke-opacity:1;marker:none;color-rendering:auto;image-rendering:auto;shape-rendering:auto;text-rendering:auto;enable-background:accumulate"
         id="rect5505-21-3-8-9-1-1"
         y="26.499983"
         x="3.5"
         ry="1.5517242"
         rx="1.9"
         height="30"
         width="57.000004" />
      <path
         d="m 7.5001874,31.007624 c -0.809969,0 -1.4921875,0.682219 -1.4921875,1.492188 v 1 c 0,0.385392 0.1705443,0.731978 0.4199219,1 -0.2493776,0.268022 -0.4199219,0.614608 -0.4199219,1 v 3 c 0,0.385392 0.1705443,0.731978 0.4199219,1 -0.2493776,0.268022 -0.4199219,0.614608 -0.4199219,1 v 3 c 0,0.385392 0.1705443,0.731978 0.4199219,1 -0.2493776,0.268022 -0.4199219,0.614608 -0.4199219,1 v 3 c 0,0.385392 0.1705443,0.731978 0.4199219,1 -0.2493776,0.268022 -0.4199219,0.614608 -0.4199219,1 v 3 c 0,0.809969 0.6822185,1.492188 1.4921875,1.492188 h 3.9999996 c 0.385392,0 0.731978,-0.170545 1,-0.419922 0.268023,0.249377 0.614609,0.419922 1,0.419922 h 4 c 0.385392,0 0.731978,-0.170545 1,-0.419922 0.268022,0.249377 0.614608,0.419922 1,0.419922 H 39.5 c 0.385393,0 0.731978,-0.170545 1,-0.419922 0.268022,0.249377 0.614608,0.419922 1,0.419922 h 4 c 0.385393,0 0.731978,-0.170623 1,-0.42 0.268022,0.249377 0.614608,0.42 1,0.42 h 4 c 0.413478,0.03596 0.640454,-0.07843 1,-0.42 0.305614,0.305614 0.496636,0.42 1,0.42 h 3.000187 c 0.80997,0 1.492188,-0.682219 1.492188,-1.492188 v -3 c 0,-0.385392 -0.170544,-0.731978 -0.419922,-1 0.249378,-0.268022 0.419922,-0.614608 0.419922,-1 v -3 c 0,-0.385392 -0.170544,-0.731978 -0.419922,-1 0.249378,-0.268022 0.419922,-0.614608 0.419922,-1 v -3 c 0,-0.385392 -0.170544,-0.731978 -0.419922,-1 0.249378,-0.268022 0.419922,-0.614608 0.419922,-1 v -3 c 0,-0.385392 -0.170544,-0.731978 -0.419922,-1 0.249378,-0.268022 0.419922,-0.614608 0.419922,-1 v -1 c 0,-0.809969 -0.682219,-1.492188 -1.492188,-1.492188 0,0 -3.753551,-0.03595 -3.250187,0 0,0 -0.597193,0.249592 -0.75,0.420376 -0.188762,-0.19775 -0.649443,-0.402399 -1,-0.420376 h -4 c -0.449432,0 -0.883148,0.240603 -1,0.420376 -0.152807,-0.206739 -0.568545,-0.402399 -1,-0.420376 h -2.999813 c -0.385392,0 -0.731978,0.170999 -1,0.420376 -0.268022,-0.249377 -0.614607,-0.420376 -1,-0.420376 h -3 c -0.385392,0 -0.731978,0.170545 -1,0.419922 -0.268022,-0.249377 -0.614607,-0.419922 -1,-0.419922 h -3 c -0.385392,0 -0.731978,0.170545 -1,0.419922 -0.268022,-0.249377 -0.614607,-0.419922 -1,-0.419922 h -3 c -0.385392,0 -0.731978,0.170545 -1,0.419922 -0.268022,-0.249377 -0.614608,-0.419922 -1,-0.419922 h -3 c -0.385392,0 -0.731978,0.170545 -1,0.419922 -0.268022,-0.249377 -0.614608,-0.419922 -1,-0.419922 h -3 c -0.385392,0 -0.731978,0.170545 -1,0.419922 -0.268022,-0.249377 -0.614608,-0.419922 -1,-0.419922 h -3 c -0.385391,0 -0.731977,0.170545 -1,0.419922 -0.268022,-0.249377 -0.614608,-0.419922 -1,-0.419922 z"
         id="path5222"
         style="color:#000000;clip-rule:nonzero;display:inline;overflow:visible;visibility:visible;opacity:0.07000002;isolation:auto;mix-blend-mode:normal;color-interpolation:sRGB;color-interpolation-filters:linearRGB;solid-color:#000000;solid-opacity:1;fill:#000000;fill-opacity:1;fill-rule:nonzero;stroke:none;stroke-width:1;stroke-linecap:butt;stroke-linejoin:miter;stroke-miterlimit:4;stroke-dasharray:none;stroke-dashoffset:0;stroke-opacity:1;marker:none;color-rendering:auto;image-rendering:auto;shape-rendering:auto;text-rendering:auto;enable-background:accumulate" />
      <path
         id="rect4562"
         d="m 7.5001874,31.999812 c -0.277,0 -0.5,0.223 -0.5,0.5 v 1 c 0,0.277 0.223,0.5 0.5,0.5 h 2.9999996 c 0.277,0 0.5,-0.223 0.5,-0.5 v -1 c 0,-0.277 -0.223,-0.5 -0.5,-0.5 z m 4.9999996,0 c -0.276999,0 -0.5,0.223 -0.5,0.5 v 1 c 0,0.277 0.223001,0.5 0.5,0.5 h 3 c 0.277,0 0.5,-0.223 0.5,-0.5 v -1 c 0,-0.277 -0.223,-0.5 -0.5,-0.5 z m 5,0 c -0.277,0 -0.5,0.223 -0.5,0.5 v 1 c 0,0.277 0.223,0.5 0.5,0.5 h 3 c 0.277,0 0.5,-0.223 0.5,-0.5 v -1 c 0,-0.277 -0.223,-0.5 -0.5,-0.5 z m 5,0 c -0.277,0 -0.5,0.223 -0.5,0.5 v 1 c 0,0.277 0.223,0.5 0.5,0.5 h 3 c 0.277,0 0.5,-0.223 0.5,-0.5 v -1 c 0,-0.277 -0.223,-0.5 -0.5,-0.5 z m 5,0 c -0.277,0 -0.5,0.223 -0.5,0.5 v 1 c 0,0.277 0.223,0.5 0.5,0.5 h 3 c 0.277,0 0.5,-0.223 0.5,-0.5 v -1 c 0,-0.277 -0.223,-0.5 -0.5,-0.5 z m 5,0 c -0.277,0 -0.5,0.223 -0.5,0.5 v 1 c 0,0.277 0.223,0.5 0.5,0.5 h 3 c 0.277,0 0.5,-0.223 0.5,-0.5 v -1 c 0,-0.277 -0.223,-0.5 -0.5,-0.5 z m 5,0 c -0.277,0 -0.5,0.223 -0.5,0.5 v 1 c 0,0.277 0.223,0.5 0.5,0.5 h 3 c 0.277,0 0.5,-0.223 0.5,-0.5 v -1 c 0,-0.277 -0.223,-0.5 -0.5,-0.5 z m 5,0 c -0.277,0 -0.5,0.223 -0.5,0.5 v 1 c 0,0.277 0.223,0.5 0.5,0.5 H 45.5 c 0.277,0 0.5,-0.223 0.5,-0.5 v -1 c 0,-0.277 -0.223,-0.5 -0.5,-0.5 z m -34.9999996,3 c -0.277,0 -0.5,0.223 -0.5,0.5 v 3 c 0,0.277 0.223,0.5 0.5,0.5 h 2.9999996 c 0.277,0 0.5,-0.223 0.5,-0.5 v -3 c 0,-0.277 -0.223,-0.5 -0.5,-0.5 z m 4.9999996,0 c -0.276999,0 -0.5,0.223 -0.5,0.5 v 3 c 0,0.277 0.223001,0.5 0.5,0.5 h 3 c 0.277,0 0.5,-0.223 0.5,-0.5 v -3 c 0,-0.277 -0.223,-0.5 -0.5,-0.5 z m 5,0 c -0.277,0 -0.5,0.223 -0.5,0.5 v 3 c 0,0.277 0.223,0.5 0.5,0.5 h 3 c 0.277,0 0.5,-0.223 0.5,-0.5 v -3 c 0,-0.277 -0.223,-0.5 -0.5,-0.5 z m 5,0 c -0.277,0 -0.5,0.223 -0.5,0.5 v 3 c 0,0.277 0.223,0.5 0.5,0.5 h 3 c 0.277,0 0.5,-0.223 0.5,-0.5 v -3 c 0,-0.277 -0.223,-0.5 -0.5,-0.5 z m 5,0 c -0.277,0 -0.5,0.223 -0.5,0.5 v 3 c 0,0.277 0.223,0.5 0.5,0.5 h 3 c 0.277,0 0.5,-0.223 0.5,-0.5 v -3 c 0,-0.277 -0.223,-0.5 -0.5,-0.5 z m 5,0 c -0.277,0 -0.5,0.223 -0.5,0.5 v 3 c 0,0.277 0.223,0.5 0.5,0.5 h 3 c 0.277,0 0.5,-0.223 0.5,-0.5 v -3 c 0,-0.277 -0.223,-0.5 -0.5,-0.5 z m 5,0 c -0.277,0 -0.5,0.223 -0.5,0.5 v 3 c 0,0.277 0.223,0.5 0.5,0.5 h 3 c 0.277,0 0.5,-0.223 0.5,-0.5 v -3 c 0,-0.277 -0.223,-0.5 -0.5,-0.5 z m 5,0 c -0.277,0 -0.5,0.223 -0.5,0.5 v 3 c 0,0.277 0.223,0.5 0.5,0.5 H 45.5 c 0.277,0 0.5,-0.223 0.5,-0.5 v -3 c 0,-0.277 -0.223,-0.5 -0.5,-0.5 z m -34.9999996,5 c -0.277,0 -0.5,0.223 -0.5,0.5 v 3 c 0,0.277 0.223,0.5 0.5,0.5 h 3.9999996 c 0.277,0 0.5,-0.223 0.5,-0.5 v -3 c 0,-0.277 -0.223,-0.5 -0.5,-0.5 z m 5.9999996,0 c -0.277,0 -0.5,0.223 -0.5,0.5 v 3 c 0,0.277 0.223,0.5 0.5,0.5 h 3 c 0.277,0 0.5,-0.223 0.5,-0.5 v -3 c 0,-0.277 -0.223,-0.5 -0.5,-0.5 z m 5,0 c -0.277,0 -0.5,0.223 -0.5,0.5 v 3 c 0,0.277 0.223,0.5 0.5,0.5 h 3 c 0.277,0 0.5,-0.223 0.5,-0.5 v -3 c 0,-0.277 -0.223,-0.5 -0.5,-0.5 z m 5,0 c -0.277,0 -0.5,0.223 -0.5,0.5 v 3 c 0,0.277 0.223,0.5 0.5,0.5 h 3 c 0.277,0 0.5,-0.223 0.5,-0.5 v -3 c 0,-0.277 -0.223,-0.5 -0.5,-0.5 z m 5,0 c -0.277,0 -0.5,0.223 -0.5,0.5 v 3 c 0,0.277 0.223,0.5 0.5,0.5 h 3 c 0.277,0 0.5,-0.223 0.5,-0.5 v -3 c 0,-0.277 -0.223,-0.5 -0.5,-0.5 z m 5,0 c -0.277,0 -0.5,0.223 -0.5,0.5 v 3 c 0,0.277 0.223,0.5 0.5,0.5 h 3 c 0.277,0 0.5,-0.223 0.5,-0.5 v -3 c 0,-0.277 -0.223,-0.5 -0.5,-0.5 z m 5,0 c -0.277,0 -0.5,0.223 -0.5,0.5 v 3 c 0,0.277 0.223,0.5 0.5,0.5 h 3 c 0.277,0 0.5,-0.223 0.5,-0.5 v -3 c 0,-0.277 -0.223,-0.5 -0.5,-0.5 z m 5,0 c -0.277,0 -0.5,0.223 -0.5,0.5 v 3 c 0,0.277 0.223,0.5 0.5,0.5 h 3 c 0.277,0 0.5,-0.223 0.5,-0.5 v -3 c 0,-0.277 -0.223,-0.5 -0.5,-0.5 z m -35.9999996,5 c -0.277,0 -0.5,0.223 -0.5,0.5 v 3 c 0,0.277 0.223,0.5 0.5,0.5 h 3.9999996 c 0.277,0 0.5,-0.223 0.5,-0.5 v -3 c 0,-0.277 -0.223,-0.5 -0.5,-0.5 z m 5.9999996,0 c -0.277,0 -0.5,0.223 -0.5,0.5 v 3 c 0,0.277 0.223,0.5 0.5,0.5 h 3 c 0.277,0 0.5,-0.223 0.5,-0.5 v -3 c 0,-0.277 -0.223,-0.5 -0.5,-0.5 z m 5,0 c -0.277,0 -0.5,0.223 -0.5,0.5 v 3 c 0,0.277 0.223,0.5 0.5,0.5 h 3 c 0.277,0 0.5,-0.223 0.5,-0.5 v -3 c 0,-0.277 -0.223,-0.5 -0.5,-0.5 z m 5,0 c -0.277,0 -0.5,0.223 -0.5,0.5 v 3 c 0,0.277 0.223,0.5 0.5,0.5 h 3 c 0.277,0 0.5,-0.223 0.5,-0.5 v -3 c 0,-0.277 -0.223,-0.5 -0.5,-0.5 z m 5,0 c -0.277,0 -0.5,0.223 -0.5,0.5 v 3 c 0,0.277 0.223,0.5 0.5,0.5 h 3 c 0.277,0 0.5,-0.223 0.5,-0.5 v -3 c 0,-0.277 -0.223,-0.5 -0.5,-0.5 z m 5,0 c -0.277,0 -0.5,0.223 -0.5,0.5 v 3 c 0,0.277 0.223,0.5 0.5,0.5 h 3 c 0.277,0 0.5,-0.223 0.5,-0.5 v -3 c 0,-0.277 -0.223,-0.5 -0.5,-0.5 z m 5,0 c -0.277,0 -0.5,0.223 -0.5,0.5 v 3 c 0,0.277 0.223,0.5 0.5,0.5 h 3 c 0.277,0 0.5,-0.223 0.5,-0.5 v -3 c 0,-0.277 -0.223,-0.5 -0.5,-0.5 z m 5,0 c -0.277,0 -0.5,0.223 -0.5,0.5 v 3 c 0,0.277 0.223,0.5 0.5,0.5 h 3 c 0.277,0 0.5,-0.223 0.5,-0.5 v -3 c 0,-0.277 -0.223,-0.5 -0.5,-0.5 z m -35.9999996,5 c -0.277,0 -0.5,0.223 -0.5,0.5 v 3 c 0,0.277 0.223,0.5 0.5,0.5 h 3.9999996 c 0.277,0 0.5,-0.223 0.5,-0.5 v -3 c 0,-0.277 -0.223,-0.5 -0.5,-0.5 z m 5.9999996,0 c -0.277,0 -0.5,0.223 -0.5,0.5 v 3 c 0,0.277 0.223,0.5 0.5,0.5 h 4 c 0.277,0 0.5,-0.223 0.5,-0.5 v -3 c 0,-0.277 -0.223,-0.5 -0.5,-0.5 z m 6,0 c -0.277,0 -0.5,0.223 -0.5,0.5 v 3 c 0,0.277 0.223,0.5 0.5,0.5 H 39.5 c 0.277,0 0.5,-0.223 0.5,-0.5 v -3 c 0,-0.277 -0.223,-0.5 -0.5,-0.5 z m 21.999813,0 c -0.277,0 -0.5,0.223 -0.5,0.5 v 3 c 0,0.277 0.223,0.5 0.5,0.5 h 4 c 0.277,0 0.5,-0.223 0.5,-0.5 v -3 c 0,-0.277 -0.223,-0.5 -0.5,-0.5 z"
         style="color:#000000;clip-rule:nonzero;display:inline;overflow:visible;visibility:visible;opacity:0.15;isolation:auto;mix-blend-mode:normal;color-interpolation:sRGB;color-interpolation-filters:linearRGB;solid-color:#000000;solid-opacity:1;fill:#000000;fill-opacity:1;fill-rule:nonzero;stroke:none;stroke-width:1;stroke-linecap:butt;stroke-linejoin:miter;stroke-miterlimit:4;stroke-dasharray:none;stroke-dashoffset:0;stroke-opacity:1;marker:none;color-rendering:auto;image-rendering:auto;shape-rendering:auto;text-rendering:auto;enable-background:accumulate" />
      <path
         id="rect4562-8"
         d="m 7.5001874,30.999812 c -0.277,0 -0.5,0.223 -0.5,0.5 v 1 c 0,0.277 0.223,0.5 0.5,0.5 h 2.9999996 c 0.277,0 0.5,-0.223 0.5,-0.5 v -1 c 0,-0.277 -0.223,-0.5 -0.5,-0.5 z m 4.9999996,0 c -0.276999,0 -0.5,0.223 -0.5,0.5 v 1 c 0,0.277 0.223001,0.5 0.5,0.5 h 3 c 0.277,0 0.5,-0.223 0.5,-0.5 v -1 c 0,-0.277 -0.223,-0.5 -0.5,-0.5 z m 5,0 c -0.277,0 -0.5,0.223 -0.5,0.5 v 1 c 0,0.277 0.223,0.5 0.5,0.5 h 3 c 0.277,0 0.5,-0.223 0.5,-0.5 v -1 c 0,-0.277 -0.223,-0.5 -0.5,-0.5 z m 5,0 c -0.277,0 -0.5,0.223 -0.5,0.5 v 1 c 0,0.277 0.223,0.5 0.5,0.5 h 3 c 0.277,0 0.5,-0.223 0.5,-0.5 v -1 c 0,-0.277 -0.223,-0.5 -0.5,-0.5 z m 5,0 c -0.277,0 -0.5,0.223 -0.5,0.5 v 1 c 0,0.277 0.223,0.5 0.5,0.5 h 3 c 0.277,0 0.5,-0.223 0.5,-0.5 v -1 c 0,-0.277 -0.223,-0.5 -0.5,-0.5 z m 5,0 c -0.277,0 -0.5,0.223 -0.5,0.5 v 1 c 0,0.277 0.223,0.5 0.5,0.5 h 3 c 0.277,0 0.5,-0.223 0.5,-0.5 v -1 c 0,-0.277 -0.223,-0.5 -0.5,-0.5 z m 5,0 c -0.277,0 -0.5,0.223 -0.5,0.5 v 1 c 0,0.277 0.223,0.5 0.5,0.5 h 3 c 0.277,0 0.5,-0.223 0.5,-0.5 v -1 c 0,-0.277 -0.223,-0.5 -0.5,-0.5 z m -29.9999996,3 c -0.277,0 -0.5,0.223 -0.5,0.5 v 3 c 0,0.277 0.223,0.5 0.5,0.5 h 2.9999996 c 0.277,0 0.5,-0.223 0.5,-0.5 v -3 c 0,-0.277 -0.223,-0.5 -0.5,-0.5 z m 4.9999996,0 c -0.276999,0 -0.5,0.223 -0.5,0.5 v 3 c 0,0.277 0.223001,0.5 0.5,0.5 h 3 c 0.277,0 0.5,-0.223 0.5,-0.5 v -3 c 0,-0.277 -0.223,-0.5 -0.5,-0.5 z m 5,0 c -0.277,0 -0.5,0.223 -0.5,0.5 v 3 c 0,0.277 0.223,0.5 0.5,0.5 h 3 c 0.277,0 0.5,-0.223 0.5,-0.5 v -3 c 0,-0.277 -0.223,-0.5 -0.5,-0.5 z m 5,0 c -0.277,0 -0.5,0.223 -0.5,0.5 v 3 c 0,0.277 0.223,0.5 0.5,0.5 h 3 c 0.277,0 0.5,-0.223 0.5,-0.5 v -3 c 0,-0.277 -0.223,-0.5 -0.5,-0.5 z m 5,0 c -0.277,0 -0.5,0.223 -0.5,0.5 v 3 c 0,0.277 0.223,0.5 0.5,0.5 h 3 c 0.277,0 0.5,-0.223 0.5,-0.5 v -3 c 0,-0.277 -0.223,-0.5 -0.5,-0.5 z m 5,0 c -0.277,0 -0.5,0.223 -0.5,0.5 v 3 c 0,0.277 0.223,0.5 0.5,0.5 h 3 c 0.277,0 0.5,-0.223 0.5,-0.5 v -3 c 0,-0.277 -0.223,-0.5 -0.5,-0.5 z m 5,0 c -0.277,0 -0.5,0.223 -0.5,0.5 v 3 c 0,0.277 0.223,0.5 0.5,0.5 h 3 c 0.277,0 0.5,-0.223 0.5,-0.5 v -3 c 0,-0.277 -0.223,-0.5 -0.5,-0.5 z m -29.9999996,5 c -0.277,0 -0.5,0.223 -0.5,0.5 v 3 c 0,0.277 0.223,0.5 0.5,0.5 h 3.9999996 c 0.277,0 0.5,-0.223 0.5,-0.5 v -3 c 0,-0.277 -0.223,-0.5 -0.5,-0.5 z m 5.9999996,0 c -0.277,0 -0.5,0.223 -0.5,0.5 v 3 c 0,0.277 0.223,0.5 0.5,0.5 h 3 c 0.277,0 0.5,-0.223 0.5,-0.5 v -3 c 0,-0.277 -0.223,-0.5 -0.5,-0.5 z m 5,0 c -0.277,0 -0.5,0.223 -0.5,0.5 v 3 c 0,0.277 0.223,0.5 0.5,0.5 h 3 c 0.277,0 0.5,-0.223 0.5,-0.5 v -3 c 0,-0.277 -0.223,-0.5 -0.5,-0.5 z m 5,0 c -0.277,0 -0.5,0.223 -0.5,0.5 v 3 c 0,0.277 0.223,0.5 0.5,0.5 h 3 c 0.277,0 0.5,-0.223 0.5,-0.5 v -3 c 0,-0.277 -0.223,-0.5 -0.5,-0.5 z m 5,0 c -0.277,0 -0.5,0.223 -0.5,0.5 v 3 c 0,0.277 0.223,0.5 0.5,0.5 h 3 c 0.277,0 0.5,-0.223 0.5,-0.5 v -3 c 0,-0.277 -0.223,-0.5 -0.5,-0.5 z m 5,0 c -0.277,0 -0.5,0.223 -0.5,0.5 v 3 c 0,0.277 0.223,0.5 0.5,0.5 h 3 c 0.277,0 0.5,-0.223 0.5,-0.5 v -3 c 0,-0.277 -0.223,-0.5 -0.5,-0.5 z m 5,0 c -0.277,0 -0.5,0.223 -0.5,0.5 v 3 c 0,0.277 0.223,0.5 0.5,0.5 h 3 c 0.277,0 0.5,-0.223 0.5,-0.5 v -3 c 0,-0.277 -0.223,-0.5 -0.5,-0.5 z m -30.9999996,5 c -0.277,0 -0.5,0.223 -0.5,0.5 v 3 c 0,0.277 0.223,0.5 0.5,0.5 h 3.9999996 c 0.277,0 0.5,-0.223 0.5,-0.5 v -3 c 0,-0.277 -0.223,-0.5 -0.5,-0.5 z m 5.9999996,0 c -0.277,0 -0.5,0.223 -0.5,0.5 v 3 c 0,0.277 0.223,0.5 0.5,0.5 h 3 c 0.277,0 0.5,-0.223 0.5,-0.5 v -3 c 0,-0.277 -0.223,-0.5 -0.5,-0.5 z m 5,0 c -0.277,0 -0.5,0.223 -0.5,0.5 v 3 c 0,0.277 0.223,0.5 0.5,0.5 h 3 c 0.277,0 0.5,-0.223 0.5,-0.5 v -3 c 0,-0.277 -0.223,-0.5 -0.5,-0.5 z m 5,0 c -0.277,0 -0.5,0.223 -0.5,0.5 v 3 c 0,0.277 0.223,0.5 0.5,0.5 h 3 c 0.277,0 0.5,-0.223 0.5,-0.5 v -3 c 0,-0.277 -0.223,-0.5 -0.5,-0.5 z m 5,0 c -0.277,0 -0.5,0.223 -0.5,0.5 v 3 c 0,0.277 0.223,0.5 0.5,0.5 h 3 c 0.277,0 0.5,-0.223 0.5,-0.5 v -3 c 0,-0.277 -0.223,-0.5 -0.5,-0.5 z m 5,0 c -0.277,0 -0.5,0.223 -0.5,0.5 v 3 c 0,0.277 0.223,0.5 0.5,0.5 h 3 c 0.277,0 0.5,-0.223 0.5,-0.5 v -3 c 0,-0.277 -0.223,-0.5 -0.5,-0.5 z m 5,0 c -0.277,0 -0.5,0.223 -0.5,0.5 v 3 c 0,0.277 0.223,0.5 0.5,0.5 h 3 c 0.277,0 0.5,-0.223 0.5,-0.5 v -3 c 0,-0.277 -0.223,-0.5 -0.5,-0.5 z m -30.9999996,5 c -0.277,0 -0.5,0.223 -0.5,0.5 v 3 c 0,0.277 0.223,0.5 0.5,0.5 h 3.9999996 c 0.277,0 0.5,-0.223 0.5,-0.5 v -3 c 0,-0.277 -0.223,-0.5 -0.5,-0.5 z m 5.9999996,0 c -0.277,0 -0.5,0.223 -0.5,0.5 v 3 c 0,0.277 0.223,0.5 0.5,0.5 h 4 c 0.277,0 0.5,-0.223 0.5,-0.5 v -3 c 0,-0.277 -0.223,-0.5 -0.5,-0.5 z m 6,0 c -0.277,0 -0.5,0.223 -0.5,0.5 v 3 c 0,0.277 0.223,0.5 0.5,0.5 H 39.5 c 0.277,0 0.5,-0.223 0.5,-0.5 v -3 c 0,-0.277 -0.223,-0.5 -0.5,-0.5 z"
         style="color:#000000;clip-rule:nonzero;display:inline;overflow:visible;visibility:visible;opacity:1;isolation:auto;mix-blend-mode:normal;color-interpolation:sRGB;color-interpolation-filters:linearRGB;solid-color:#000000;solid-opacity:1;fill:url(#linearGradient5177);fill-opacity:1;fill-rule:nonzero;stroke:none;stroke-width:1;stroke-linecap:butt;stroke-linejoin:miter;stroke-miterlimit:4;stroke-dasharray:none;stroke-dashoffset:0;stroke-opacity:1;marker:none;color-rendering:auto;image-rendering:auto;shape-rendering:auto;text-rendering:auto;enable-background:accumulate" />
      <path
         style="color:#000000;clip-rule:nonzero;display:inline;overflow:visible;visibility:visible;opacity:0.15;isolation:auto;mix-blend-mode:normal;color-interpolation:sRGB;color-interpolation-filters:linearRGB;solid-color:#000000;solid-opacity:1;fill:#000000;fill-opacity:1;fill-rule:nonzero;stroke:none;stroke-width:1;stroke-linecap:butt;stroke-linejoin:miter;stroke-miterlimit:4;stroke-dasharray:none;stroke-dashoffset:0;stroke-opacity:1;marker:none;color-rendering:auto;image-rendering:auto;shape-rendering:auto;text-rendering:auto;enable-background:accumulate"
         d="m 47.500187,31.999812 c -0.277,0 -0.5,0.223 -0.5,0.5 v 1 c 0,0.277 0.223,0.5 0.5,0.5 H 51.5 c 0.277,0 0.5,-0.223 0.5,-0.5 v -1 c 0,-0.277 -0.223,-0.5 -0.5,-0.5 z m 5.999903,0 c -0.277,0 -0.5,0.223 -0.5,0.5 v 1 c 0,0.277 0.223,0.5 0.5,0.5 h 2.99981 c 0.277,0 0.5,-0.223 0.5,-0.5 v -1 c 0,-0.277 -0.223,-0.5 -0.5,-0.5 z m -5.999903,3 c -0.277,0 -0.5,0.223 -0.5,0.5 v 3 c 0,0.277 0.223,0.5 0.5,0.5 H 51.5 c 0.277,0 0.5,-0.223 0.5,-0.5 v -3 c 0,-0.277 -0.223,-0.5 -0.5,-0.5 z m 5.999913,0 c -0.277,0 -0.5,0.223 -0.5,0.5 v 3 c 0,0.277 0.223,0.5 0.5,0.5 h 2.9998 c 0.27701,0 0.5,-0.223 0.5,-0.5 v -3 c 0,-0.277 -0.22299,-0.5 -0.5,-0.5 z m -4.999913,5 c -0.277,0 -0.5,0.223 -0.5,0.5 v 3 c 0,0.277 0.223,0.5 0.5,0.5 h 3.000003 c 0.277,0 0.5,-0.223 0.5,-0.5 v -3 c 0,-0.277 -0.223,-0.5 -0.5,-0.5 z m 5.000003,0 c -0.277,0 -0.5,0.223 -0.5,0.5 v 3 c 0,0.277 0.223,0.5 0.5,0.5 h 3 c 0.277,0 0.5,-0.223 0.5,-0.5 v -3 c 0,-0.277 -0.223,-0.5 -0.5,-0.5 z m -5.000003,5 c -0.277,0 -0.5,0.223 -0.5,0.5 v 3 c 0,0.277 0.223,0.5 0.5,0.5 h 3.000003 c 0.277,0 0.5,-0.223 0.5,-0.5 v -3 c 0,-0.277 -0.223,-0.5 -0.5,-0.5 z m 5.000003,0 c -0.277,0 -0.5,0.223 -0.5,0.5 v 3 c 0,0.277 0.223,0.5 0.5,0.5 h 3 c 0.277,0 0.5,-0.223 0.5,-0.5 v -3 c 0,-0.277 -0.223,-0.5 -0.5,-0.5 z m -6.00019,5 c -0.277,0 -0.5,0.223 -0.5,0.5 v 3 c 0,0.277 0.223,0.5 0.5,0.5 h 3.99991 c 0.277,0 0.5,-0.223 0.5,-0.5 v -3 c 0,-0.277 -0.223,-0.5 -0.5,-0.5 z m 6,0 c -0.277,0 -0.5,0.223 -0.5,0.5 v 3 c 0,0.277 0.223,0.5 0.5,0.5 h 3 c 0.277,0 0.5,-0.223 0.5,-0.5 v -3 c 0,-0.277 -0.223,-0.5 -0.5,-0.5 z"
         id="path4176" />
      <path
         id="rect4562-8-8"
         d="m 42.5,30.999812 c -0.277,0 -0.5,0.223 -0.5,0.5 v 1 c 0,0.277 0.223,0.5 0.5,0.5 h 3 c 0.277,0 0.5,-0.223 0.5,-0.5 v -1 c 0,-0.277 -0.223,-0.5 -0.5,-0.5 z m 5,0 c -0.277,0 -0.5,0.223 -0.5,0.5 v 1 c 0,0.277 0.223,0.5 0.5,0.5 h 4 c 0.277,0 0.5,-0.223 0.5,-0.5 v -1 c 0,-0.277 -0.223,-0.5 -0.5,-0.5 z m -5,3 c -0.277,0 -0.5,0.223 -0.5,0.5 v 3 c 0,0.277 0.223,0.5 0.5,0.5 h 3 c 0.277,0 0.5,-0.223 0.5,-0.5 v -3 c 0,-0.277 -0.223,-0.5 -0.5,-0.5 z m 5,0 c -0.277,0 -0.5,0.223 -0.5,0.5 v 3 c 0,0.277 0.223,0.5 0.5,0.5 h 4 c 0.277,0 0.5,-0.223 0.5,-0.5 v -3 c 0,-0.277 -0.223,-0.5 -0.5,-0.5 z m -4,5 c -0.277,0 -0.5,0.223 -0.5,0.5 v 3 c 0,0.277 0.223,0.5 0.5,0.5 h 3 c 0.277,0 0.5,-0.223 0.5,-0.5 v -3 c 0,-0.277 -0.223,-0.5 -0.5,-0.5 z m 5,0 c -0.277,0 -0.5,0.223 -0.5,0.5 v 3 c 0,0.277 0.223,0.5 0.5,0.5 h 3 c 0.277,0 0.5,-0.223 0.5,-0.5 v -3 c 0,-0.277 -0.223,-0.5 -0.5,-0.5 z m -5,5 c -0.277,0 -0.5,0.223 -0.5,0.5 v 3 c 0,0.277 0.223,0.5 0.5,0.5 h 3 c 0.277,0 0.5,-0.223 0.5,-0.5 v -3 c 0,-0.277 -0.223,-0.5 -0.5,-0.5 z m 5,0 c -0.277,0 -0.5,0.223 -0.5,0.5 v 3 c 0,0.277 0.223,0.5 0.5,0.5 h 3 c 0.277,0 0.5,-0.223 0.5,-0.5 v -3 c 0,-0.277 -0.223,-0.5 -0.5,-0.5 z m -7,5 c -0.277,0 -0.5,0.223 -0.5,0.5 v 3 c 0,0.277 0.223,0.5 0.5,0.5 h 4 c 0.277,0 0.5,-0.223 0.5,-0.5 v -3 c 0,-0.277 -0.223,-0.5 -0.5,-0.5 z m 6,0 c -0.277,0 -0.5,0.223 -0.5,0.5 v 3 c 0,0.277 0.223,0.5 0.5,0.5 h 4 c 0.277,0 0.5,-0.223 0.5,-0.5 v -3 c 0,-0.277 -0.223,-0.5 -0.5,-0.5 z"
         style="color:#000000;clip-rule:nonzero;display:inline;overflow:visible;visibility:visible;opacity:1;isolation:auto;mix-blend-mode:normal;color-interpolation:sRGB;color-interpolation-filters:linearRGB;solid-color:#000000;solid-opacity:1;fill:url(#linearGradient5177-3);fill-opacity:1;fill-rule:nonzero;stroke:none;stroke-width:1;stroke-linecap:butt;stroke-linejoin:miter;stroke-miterlimit:4;stroke-dasharray:none;stroke-dashoffset:0;stroke-opacity:1;marker:none;color-rendering:auto;image-rendering:auto;shape-rendering:auto;text-rendering:auto;enable-background:accumulate" />
      <path
         style="color:#000000;clip-rule:nonzero;display:inline;overflow:visible;visibility:visible;opacity:1;isolation:auto;mix-blend-mode:normal;color-interpolation:sRGB;color-interpolation-filters:linearRGB;solid-color:#000000;solid-opacity:1;fill:url(#linearGradient4172);fill-opacity:1;fill-rule:nonzero;stroke:none;stroke-width:1;stroke-linecap:butt;stroke-linejoin:miter;stroke-miterlimit:4;stroke-dasharray:none;stroke-dashoffset:0;stroke-opacity:1;marker:none;color-rendering:auto;image-rendering:auto;shape-rendering:auto;text-rendering:auto;enable-background:accumulate"
         d="m 53.5,30.999812 c -0.277,0 -0.5,0.223 -0.5,0.5 v 1 c 0,0.277 0.223,0.5 0.5,0.5 h 3 c 0.277,0 0.5,-0.223 0.5,-0.5 v -1 c 0,-0.277 -0.223,-0.5 -0.5,-0.5 z m 0,3 c -0.277,0 -0.5,0.223 -0.5,0.5 v 3 c 0,0.277 0.223,0.5 0.5,0.5 h 3 c 0.277,0 0.5,-0.223 0.5,-0.5 v -3 c 0,-0.277 -0.223,-0.5 -0.5,-0.5 z m 0,5 c -0.277,0 -0.5,0.223 -0.5,0.5 v 3 c 0,0.277 0.223,0.5 0.5,0.5 h 3 c 0.277,0 0.5,-0.223 0.5,-0.5 v -3 c 0,-0.277 -0.223,-0.5 -0.5,-0.5 z m 0,5 c -0.277,0 -0.5,0.223 -0.5,0.5 v 3 c 0,0.277 0.223,0.5 0.5,0.5 h 3 c 0.277,0 0.5,-0.223 0.5,-0.5 v -3 c 0,-0.277 -0.223,-0.5 -0.5,-0.5 z m 0,5 c -0.277,0 -0.5,0.223 -0.5,0.5 v 3 c 0,0.277 0.223,0.5 0.5,0.5 h 3 c 0.277,0 0.5,-0.223 0.5,-0.5 v -3 c 0,-0.277 -0.223,-0.5 -0.5,-0.5 z"
         id="path4170" />
    </g>
  </g>
</svg>
